<?xml version="1.0" standalone="no"?>
<!DOCTYPE svg PUBLIC "-//W3C//DTD SVG 20010904//EN"
 "http://www.w3.org/TR/2001/REC-SVG-20010904/DTD/svg10.dtd">
<svg version="1.0" xmlns="http://www.w3.org/2000/svg"
 width="2144.000000pt" height="2144.000000pt" viewBox="0 0 2144.000000 2144.000000"
 preserveAspectRatio="xMidYMid meet">
<metadata>
Created by potrace 1.11, written by Peter Selinger 2001-2013
</metadata>
<g transform="translate(0.000000,2144.000000) scale(0.100000,-0.100000)"
fill="#000000" stroke="none">
<path d="M346 15579 c-65 -21 -141 -62 -168 -89 -9 -10 -21 -20 -25 -21 -30
-13 -117 -151 -127 -200 -2 -13 -9 -37 -15 -52 -8 -20 -11 -1272 -11 -4411 0
-4007 1 -4387 16 -4437 9 -30 17 -59 18 -65 1 -6 10 -23 19 -37 10 -15 15 -27
12 -27 -4 0 0 -6 7 -14 7 -8 22 -26 32 -40 29 -41 64 -76 74 -76 5 0 15 -6 21
-14 35 -42 159 -87 256 -92 33 -2 65 -6 72 -8 7 -3 15 -1 19 5 3 6 13 7 23 4
15 -7 36 -7 160 -4 27 1 54 -1 60 -5 6 -4 11 -2 11 4 0 6 5 8 11 4 10 -5 97
-9 114 -4 16 5 84 2 93 -4 6 -3 13 -2 17 4 4 6 11 8 16 4 10 -6 33 -6 155 -3
29 1 57 -1 63 -5 6 -4 11 -2 11 4 0 6 5 8 11 4 11 -6 37 -7 150 -2 25 1 51 -2
57 -6 6 -3 13 -2 17 4 4 6 11 8 16 4 10 -6 33 -6 155 -3 29 1 57 -1 63 -5 6
-4 11 -2 11 4 0 6 5 8 11 4 10 -5 97 -9 114 -4 16 5 84 2 93 -4 6 -3 13 -2 17
4 4 6 11 8 16 4 10 -6 33 -6 155 -3 29 1 57 -1 63 -5 6 -4 11 -2 11 4 0 6 5 8
11 4 11 -6 37 -7 150 -2 25 1 51 -2 57 -6 6 -3 13 -2 17 4 4 6 11 8 16 4 10
-6 33 -6 155 -3 29 1 57 -1 63 -5 6 -4 11 -2 11 4 0 6 5 8 11 4 10 -5 97 -9
114 -4 16 5 84 2 93 -4 6 -3 13 -2 17 4 4 6 11 8 16 4 10 -6 33 -6 155 -3 29
1 57 -1 63 -5 6 -4 11 -2 11 4 0 6 5 8 11 4 11 -6 37 -7 150 -2 25 1 51 -2 57
-6 6 -3 13 -2 17 4 4 6 11 8 16 4 10 -6 33 -6 155 -3 29 1 57 -1 63 -5 6 -4
11 -2 11 4 0 6 5 8 11 4 10 -5 97 -9 114 -4 16 5 84 2 93 -4 6 -3 13 -2 17 4
4 6 11 8 16 4 10 -6 33 -6 155 -3 29 1 57 -1 63 -5 6 -4 11 -2 11 4 0 6 5 8
11 4 11 -6 37 -7 150 -2 25 1 51 -2 57 -6 6 -3 13 -2 17 4 4 6 11 8 16 4 10
-6 33 -6 155 -3 29 1 57 -1 63 -5 6 -4 11 -2 11 4 0 6 5 8 11 4 10 -5 97 -9
114 -4 16 5 84 2 93 -4 6 -3 13 -2 17 4 4 6 11 8 16 4 10 -6 33 -6 155 -3 29
1 57 -1 63 -5 6 -4 11 -2 11 4 0 6 5 8 11 4 11 -6 37 -7 150 -2 25 1 51 -2 57
-6 6 -3 13 -2 17 4 4 6 11 8 16 4 10 -6 33 -6 155 -3 29 1 57 -1 63 -5 6 -4
11 -2 11 4 0 6 5 8 11 4 10 -5 97 -9 114 -4 16 5 84 2 93 -4 6 -3 13 -2 17 4
4 6 11 8 16 4 10 -6 33 -6 155 -3 29 1 57 -1 63 -5 6 -4 11 -2 11 4 0 6 5 8
11 4 11 -6 37 -7 150 -2 25 1 51 -2 57 -6 6 -3 13 -2 17 4 4 6 11 8 16 4 10
-6 33 -6 155 -3 29 1 57 -1 63 -5 6 -4 11 -2 11 4 0 6 5 8 11 4 10 -5 97 -9
114 -4 16 5 84 2 93 -4 6 -3 13 -2 17 4 4 6 11 8 16 4 10 -6 33 -6 155 -3 29
1 57 -1 63 -5 6 -4 11 -2 11 4 0 6 5 8 11 4 11 -6 37 -7 150 -2 25 1 51 -2 57
-6 6 -3 13 -2 17 4 4 6 11 8 16 4 10 -6 33 -6 155 -3 29 1 57 -1 63 -5 6 -4
11 -2 11 4 0 6 5 8 11 4 10 -5 97 -9 114 -4 16 5 84 2 93 -4 6 -3 13 -2 17 4
4 6 11 8 16 4 10 -6 33 -6 155 -3 29 1 57 -1 63 -5 6 -4 11 -2 11 4 0 6 5 8
11 4 11 -6 37 -7 150 -2 25 1 51 -2 57 -6 6 -3 13 -2 17 4 4 6 11 8 16 4 10
-6 33 -6 155 -3 29 1 57 -1 63 -5 6 -4 11 -2 11 4 0 6 5 8 11 4 10 -5 97 -9
114 -4 16 5 84 2 93 -4 6 -3 13 -2 17 4 4 6 11 8 16 4 10 -6 33 -6 155 -3 29
1 57 -1 63 -5 6 -4 11 -2 11 4 0 6 5 8 11 4 11 -6 37 -7 150 -2 25 1 51 -2 57
-6 6 -3 13 -2 17 4 4 6 11 8 16 4 10 -6 33 -6 155 -3 29 1 57 -1 63 -5 6 -4
11 -2 11 4 0 6 5 8 11 4 10 -5 97 -9 114 -4 16 5 84 2 93 -4 6 -3 13 -2 17 4
4 6 11 8 16 4 10 -6 33 -6 155 -3 29 1 57 -1 63 -5 6 -4 11 -2 11 4 0 6 5 8
11 4 11 -6 37 -7 150 -2 25 1 51 -2 57 -6 6 -3 13 -2 17 4 4 6 11 8 16 4 6 -3
36 -5 67 -5 31 1 66 1 77 1 11 0 49 0 85 0 36 0 72 0 80 0 8 0 44 0 80 0 36 0
72 0 80 0 8 0 44 0 80 0 36 0 72 0 80 0 8 0 44 0 80 0 36 0 72 0 80 0 8 0 44
0 80 0 36 0 72 0 80 0 8 0 44 0 80 0 36 0 72 0 80 0 8 0 44 0 80 0 36 0 72 0
80 0 8 0 44 0 80 0 36 0 72 0 80 0 8 0 44 0 80 0 36 0 72 0 80 0 8 0 44 0 80
0 36 0 72 0 80 0 8 0 44 0 80 0 36 0 72 0 80 0 8 0 44 0 80 0 36 0 72 0 80 0
8 0 44 0 80 0 36 0 72 0 80 0 8 0 44 0 80 0 36 0 72 0 80 0 8 0 44 0 80 0 36
0 72 0 80 0 8 0 44 0 80 0 36 0 72 0 80 0 8 0 44 0 80 0 36 0 72 0 80 0 8 0
44 0 80 0 36 0 72 0 80 0 8 0 44 0 80 0 36 0 72 0 80 0 8 0 44 0 80 0 36 0 72
0 80 0 8 0 44 0 80 0 36 0 72 0 80 0 8 0 44 0 80 0 36 0 72 0 80 0 8 0 44 0
80 0 36 0 72 0 80 0 8 0 44 0 80 0 36 0 72 0 80 0 8 0 44 0 80 0 36 0 72 0 80
0 8 0 44 0 80 0 36 0 72 0 80 0 8 0 44 0 80 0 36 0 72 0 80 0 8 0 44 0 80 0
36 0 72 0 80 0 8 0 44 0 80 0 36 0 72 0 80 0 8 0 44 0 80 0 36 0 72 0 80 0 8
0 44 0 80 0 36 0 70 0 75 0 6 0 21 -1 35 -3 14 -2 33 0 42 5 9 4 19 5 22 0 5
-9 140 -7 156 3 5 3 10 3 10 -2 0 -9 103 -9 118 1 6 3 12 0 15 -6 3 -10 7 -10
19 -1 8 7 18 10 22 6 9 -9 106 -10 106 -1 0 5 22 4 40 -2 15 -6 109 -4 133 2
15 3 27 4 27 0 0 -9 104 -7 119 2 6 4 11 2 11 -3 0 -6 5 -11 11 -11 5 0 7 5 3
12 -5 7 -3 8 5 3 15 -8 176 -9 190 0 5 3 13 1 16 -5 5 -8 11 -8 19 -1 7 6 16
8 19 5 5 -6 31 -6 153 -3 29 1 57 -1 63 -5 6 -4 11 -2 11 4 0 6 5 8 11 4 11
-6 37 -7 150 -2 25 1 51 -2 57 -6 6 -3 13 -2 17 4 4 6 11 8 16 4 9 -5 92 -8
112 -4 9 2 86 2 90 0 10 -7 117 -3 117 4 0 5 6 4 13 -1 6 -5 35 -7 62 -6 63 4
65 4 95 0 14 -2 37 0 53 4 15 4 27 5 27 1 0 -9 104 -7 118 2 6 3 12 0 15 -6 3
-10 7 -10 19 -1 8 7 18 10 22 6 9 -9 106 -10 106 -1 0 5 22 4 40 -2 15 -6 109
-4 133 2 15 3 27 4 27 0 0 -9 104 -7 119 2 6 4 11 4 11 -1 0 -4 23 -8 50 -8
28 0 50 4 50 9 0 5 5 5 13 0 6 -5 35 -8 62 -7 66 4 66 4 95 0 14 -2 37 0 53 4
15 4 27 5 27 1 0 -9 104 -7 118 2 6 3 12 0 15 -6 3 -10 7 -10 19 -1 8 7 18 10
22 6 8 -8 106 -11 106 -2 0 3 15 4 33 2 17 -2 38 -4 45 -3 19 0 38 0 92 0 28
0 72 1 99 1 27 1 54 -1 60 -5 6 -4 11 -2 11 4 0 6 5 8 11 4 10 -5 97 -9 114
-4 16 5 84 2 93 -4 6 -3 13 -2 17 4 4 6 11 8 16 4 10 -6 33 -6 155 -3 29 1 57
-1 63 -5 6 -4 11 -2 11 4 0 6 5 8 11 4 11 -6 37 -7 150 -2 25 1 51 -2 57 -6 6
-3 13 -2 17 4 4 6 11 8 16 4 10 -6 33 -6 155 -3 29 1 57 -1 63 -5 6 -4 11 -2
11 4 0 6 5 8 11 4 10 -5 97 -9 114 -4 16 5 84 2 93 -4 6 -3 13 -2 17 4 4 6 11
8 16 4 10 -6 33 -6 155 -3 29 1 57 -1 63 -5 6 -4 11 -2 11 4 0 6 5 8 11 4 11
-6 37 -7 150 -2 25 1 51 -2 57 -6 6 -3 13 -2 17 4 4 6 11 8 16 4 6 -3 32 -6
57 -5 49 1 143 1 165 0 28 -1 95 9 136 21 95 26 204 99 248 166 7 11 24 36 38
57 14 21 27 46 29 55 1 9 6 24 9 32 3 8 11 33 16 55 8 27 11 914 11 2815 0
2479 -2 2781 -16 2834 -17 64 -57 148 -80 167 -8 6 -14 15 -14 20 0 17 -84 87
-146 121 -43 24 -112 46 -161 51 -23 3 -46 8 -52 11 -5 4 -12 2 -16 -4 -4 -6
-11 -7 -17 -4 -12 8 -98 11 -98 4 0 -3 -22 -5 -50 -5 -27 0 -50 3 -50 7 0 7
-34 3 -48 -6 -4 -2 -14 -1 -21 3 -7 5 -28 5 -47 1 -20 -5 -34 -4 -34 2 0 5 -6
5 -17 -1 -10 -5 -26 -5 -40 0 -13 5 -23 5 -23 1 0 -4 -12 -7 -27 -6 -16 1 -28
3 -28 4 0 1 -21 2 -48 3 -26 1 -47 0 -47 -3 0 -7 -89 -4 -96 3 -4 3 -17 2 -30
-3 -13 -5 -24 -6 -24 -1 0 5 -18 5 -40 1 -22 -4 -40 -4 -40 1 0 5 -10 5 -22 1
-26 -9 -75 -8 -84 1 -4 4 -14 2 -24 -3 -10 -5 -20 -7 -23 -3 -8 7 -97 10 -97
3 0 -3 -22 -5 -50 -5 -27 0 -50 3 -50 7 0 7 -34 3 -48 -6 -4 -2 -14 -1 -21 3
-7 5 -28 5 -47 1 -20 -5 -34 -4 -34 2 0 5 -6 5 -17 -1 -10 -5 -26 -5 -40 0
-13 5 -23 5 -23 1 0 -4 -12 -7 -27 -6 -16 1 -28 3 -28 4 0 1 -21 2 -48 3 -26
1 -47 0 -47 -3 0 -3 -21 -4 -47 -3 -27 1 -48 2 -48 3 0 1 -10 3 -22 4 -13 2
-23 -1 -23 -5 0 -5 -11 -4 -24 1 -13 5 -27 6 -30 3 -5 -5 -8 100 -7 202 2 74
0 129 -4 136 -3 4 -2 10 3 13 4 2 5 32 2 65 -3 34 -3 61 0 61 3 0 4 33 3 72
-7 199 -8 228 -3 228 6 0 3 258 -4 360 -3 41 -10 93 -17 115 -18 66 -76 164
-117 199 -7 6 -23 21 -34 34 -12 12 -28 22 -35 22 -7 0 -13 4 -13 9 0 10 -103
57 -145 65 -16 4 -41 9 -55 12 -14 2 -47 4 -75 3 -27 0 -68 0 -90 1 -43 3 -51
3 -135 0 -30 -1 -59 -1 -65 0 -5 1 -14 1 -20 0 -5 -1 -32 -1 -60 -1 -27 0 -69
1 -92 0 -24 0 -51 0 -60 0 -10 1 -49 0 -88 0 -38 -1 -77 -1 -85 0 -44 3 -152
1 -158 -3 -4 -2 -26 -1 -50 4 -23 4 -45 4 -47 0 -3 -4 -21 -4 -40 0 -19 4 -51
4 -70 0 -19 -4 -37 -4 -40 0 -2 4 -23 4 -45 0 -22 -4 -58 -4 -80 0 -22 4 -43
4 -45 0 -3 -4 -21 -4 -40 0 -19 4 -51 4 -70 0 -19 -4 -37 -4 -40 0 -2 4 -23 4
-45 0 -22 -4 -58 -4 -80 0 -22 4 -43 4 -45 0 -3 -4 -21 -4 -40 0 -19 4 -51 4
-70 0 -19 -4 -37 -4 -40 0 -2 4 -23 4 -45 0 -22 -4 -58 -4 -80 0 -22 4 -43 4
-45 0 -3 -4 -21 -4 -40 0 -19 4 -51 4 -70 0 -20 -4 -38 -4 -41 1 -3 5 -2 9 2
9 3 0 1 6 -5 14 -8 10 -9 16 -1 21 7 4 7 12 0 25 -7 13 -7 21 0 25 8 5 8 11 0
20 -8 9 -8 15 0 20 7 4 7 12 0 26 -8 13 -7 19 0 19 8 0 8 6 0 20 -6 12 -7 20
-1 20 6 0 6 11 1 30 -5 19 -5 30 1 30 6 0 5 8 -1 20 -7 13 -7 20 -1 20 7 0 7
9 1 25 -6 16 -6 25 0 25 6 0 6 10 0 26 -6 14 -7 23 -2 21 9 -6 6 108 -3 123
-3 5 -2 10 4 10 7 0 7 8 1 26 -7 16 -7 23 0 19 7 -4 7 3 0 19 -6 16 -6 26 0
26 6 0 6 10 0 26 -6 14 -7 23 -2 21 9 -6 8 45 -2 61 -3 6 -2 13 4 17 7 4 7 12
0 25 -7 13 -7 21 0 25 8 5 8 11 0 20 -8 9 -8 15 0 20 7 4 7 12 0 25 -7 13 -7
21 0 25 8 5 8 11 0 20 -8 9 -8 15 0 20 7 4 7 12 0 25 -7 13 -7 21 0 25 7 4 8
11 1 18 -12 15 -12 27 0 50 7 11 6 17 -1 17 -7 0 -8 6 0 19 5 11 6 22 1 25 -4
3 -7 17 -5 31 1 14 -2 40 -7 58 -5 18 -12 45 -15 62 -3 16 -8 32 -12 35 -4 3
-14 19 -22 35 -15 31 -79 118 -91 123 -4 2 -19 14 -32 26 -23 22 -102 64 -152
82 -11 4 -27 10 -35 13 -8 3 -3581 6 -7940 8 -7828 2 -7926 1 -7984 -18z"/>
</g>
</svg>
